<svg version="1.1" id="Layer_1" xmlns="http://www.w3.org/2000/svg" xmlns:xlink="http://www.w3.org/1999/xlink" x="0px" y="0px"
	 width="100%" viewBox="0 0 512 512" enable-background="new 0 0 512 512" xml:space="preserve">
<path fill="#32BA7C" opacity="1.000000" stroke="none" 
	d="
M235.000000,1.000000 
	C249.354233,1.000000 263.708466,1.000000 278.733582,1.376396 
	C287.349060,2.818234 295.304108,3.811536 303.236267,4.962725 
	C326.506165,8.339858 348.441223,16.077887 369.468445,26.270365 
	C389.400146,35.931839 407.744171,48.094486 424.447296,62.800930 
	C439.879639,76.388504 453.922668,91.183380 465.915314,107.845428 
	C479.127472,126.201820 489.761108,146.051147 497.549255,167.269653 
	C504.124878,185.184601 509.020050,203.603592 511.040436,222.684769 
	C511.477509,226.812729 512.335754,230.896088 513.000000,235.000000 
	C513.000000,239.356903 513.000000,243.713806 512.706604,248.375549 
	C501.809753,239.137802 491.118652,229.690430 480.623627,220.030014 
	C465.361176,205.981186 450.281769,191.733566 435.023193,177.680496 
	C432.007294,174.902832 428.534180,172.621643 425.121216,169.826660 
	C422.632202,165.937805 420.749084,161.909912 417.865784,158.813354 
	C410.718079,151.137161 403.167664,143.830887 395.655884,136.502228 
	C393.650421,134.545624 391.365173,132.752670 388.928711,131.381638 
	C376.222565,124.231819 362.292236,126.724663 350.805298,138.152573 
	C308.288330,180.451035 265.788971,222.767212 223.340912,265.134796 
	C221.961090,266.511993 221.208694,268.517792 220.163818,270.230560 
	C219.440689,270.024048 218.717560,269.817535 217.994415,269.610992 
	C216.903091,268.143524 215.969604,266.520020 214.696579,265.232178 
	C197.363525,247.697220 180.029602,230.162613 162.600143,212.723618 
	C148.967209,199.083221 131.132492,199.028183 117.374626,212.497253 
	C110.946686,218.790237 104.634270,225.201385 98.281204,231.570663 
	C83.233093,246.657166 83.141380,263.885101 98.063385,278.934509 
	C129.499191,310.638702 160.898804,342.379211 192.459091,373.959076 
	C196.874710,378.377472 202.113342,381.973328 207.026123,386.294006 
	C208.061142,387.955078 208.894501,389.418427 210.042252,390.567810 
	C246.750107,427.328857 283.479736,464.068146 320.256256,500.760468 
	C321.612549,502.113708 323.471588,502.963043 324.889709,504.384369 
	C313.042664,506.851318 301.403351,508.987061 289.761230,511.107361 
	C286.178101,511.759918 282.587280,512.370300 279.000000,513.000000 
	C264.645782,513.000000 250.291550,513.000000 235.266449,512.623596 
	C226.650940,511.181763 218.695816,510.188507 210.763641,509.037323 
	C187.493805,505.660126 165.558716,497.922119 144.531525,487.729645 
	C124.599800,478.068207 106.255760,465.905518 89.552681,451.199005 
	C74.120369,437.611450 60.077396,422.816559 48.084671,406.154510 
	C34.872433,387.798157 24.238943,367.948822 16.450743,346.730347 
	C9.875093,328.815399 4.979986,310.396393 2.959546,291.315247 
	C2.522452,287.187286 1.664240,283.103912 0.999999,279.000000 
	C1.000000,264.645782 1.000000,250.291550 1.376398,235.266434 
	C2.818234,226.650986 3.811538,218.695938 4.962713,210.763809 
	C8.339828,187.493927 16.077862,165.558853 26.270336,144.531631 
	C35.931786,124.599907 48.094463,106.255875 62.800900,89.552734 
	C76.388451,74.120392 91.183365,60.077396 107.845413,48.084721 
	C126.201782,34.872540 146.051086,24.238886 167.269623,16.450733 
	C185.184601,9.875130 203.603577,4.979986 222.684753,2.959549 
	C226.812714,2.522454 230.896088,1.664243 235.000000,1.000000 
z"/>
<path fill="#0AA06E" opacity="1.000000" stroke="none" 
	d="
M425.271912,170.111496 
	C428.534180,172.621643 432.007294,174.902832 435.023193,177.680496 
	C450.281769,191.733566 465.361176,205.981186 480.623627,220.030014 
	C491.118652,229.690430 501.809753,239.137802 512.706604,248.840210 
	C513.000000,259.020905 513.000000,269.041779 512.614624,279.713898 
	C510.988617,296.719391 507.795013,312.675323 503.269745,328.450806 
	C497.204346,349.595276 489.110687,369.855438 477.075226,388.260498 
	C468.865326,400.815399 460.353790,413.364868 450.454681,424.572052 
	C439.443787,437.037933 427.381836,448.798157 414.551727,459.379303 
	C397.643066,473.324097 378.658813,484.414368 358.293396,492.699554 
	C347.478790,497.099274 336.177795,500.303375 325.096344,504.047180 
	C323.471588,502.963043 321.612549,502.113708 320.256256,500.760468 
	C283.479736,464.068146 246.750107,427.328857 210.042252,390.567810 
	C208.894501,389.418427 208.061142,387.955078 207.420837,386.350311 
	C221.111404,390.570404 232.537445,387.622162 242.329529,377.485626 
	C253.779648,365.632660 265.309570,353.853210 276.976929,342.214355 
	C323.307587,295.996918 369.659637,249.800705 416.115662,203.709396 
	C425.763641,194.137131 429.265869,183.231873 425.271912,170.111496 
z"/>
<path fill="#FFFFFF" opacity="1.000000" stroke="none" 
	d="
M234.531342,1.000000 
	C230.896088,1.664243 226.812714,2.522454 222.684753,2.959549 
	C203.603577,4.979986 185.184601,9.875130 167.269623,16.450733 
	C146.051086,24.238886 126.201782,34.872540 107.845413,48.084721 
	C91.183365,60.077396 76.388451,74.120392 62.800900,89.552734 
	C48.094463,106.255875 35.931786,124.599907 26.270336,144.531631 
	C16.077862,165.558853 8.339828,187.493927 4.962713,210.763809 
	C3.811538,218.695938 2.818234,226.650986 1.376398,234.797775 
	C1.000000,157.072952 1.000000,79.145912 1.000000,1.000000 
	C78.687424,1.000000 156.375061,1.000000 234.531342,1.000000 
z"/>
<path fill="#FFFFFF" opacity="1.000000" stroke="none" 
	d="
M513.000000,234.531342 
	C512.335754,230.896088 511.477509,226.812729 511.040436,222.684769 
	C509.020050,203.603592 504.124878,185.184601 497.549255,167.269653 
	C489.761108,146.051147 479.127472,126.201820 465.915314,107.845428 
	C453.922668,91.183380 439.879639,76.388504 424.447296,62.800930 
	C407.744171,48.094486 389.400146,35.931839 369.468445,26.270365 
	C348.441223,16.077887 326.506165,8.339858 303.236267,4.962725 
	C295.304108,3.811536 287.349060,2.818234 279.202209,1.376396 
	C356.927032,1.000000 434.854095,1.000000 513.000000,1.000000 
	C513.000000,78.687424 513.000000,156.375061 513.000000,234.531342 
z"/>
<path fill="#FFFFFF" opacity="1.000000" stroke="none" 
	d="
M0.999999,279.468658 
	C1.664240,283.103912 2.522452,287.187286 2.959546,291.315247 
	C4.979986,310.396393 9.875093,328.815399 16.450743,346.730347 
	C24.238943,367.948822 34.872433,387.798157 48.084671,406.154510 
	C60.077396,422.816559 74.120369,437.611450 89.552681,451.199005 
	C106.255760,465.905518 124.599800,478.068207 144.531525,487.729645 
	C165.558716,497.922119 187.493805,505.660126 210.763641,509.037323 
	C218.695816,510.188507 226.650940,511.181763 234.797791,512.623596 
	C157.072968,513.000000 79.145927,513.000000 1.000000,513.000000 
	C1.000000,435.312561 1.000000,357.624939 0.999999,279.468658 
z"/>
<path fill="#FFFFFF" opacity="1.000000" stroke="none" 
	d="
M324.889709,504.384338 
	C336.177795,500.303375 347.478790,497.099274 358.293396,492.699554 
	C378.658813,484.414368 397.643066,473.324097 414.551727,459.379303 
	C427.381836,448.798157 439.443787,437.037933 450.454681,424.572052 
	C460.353790,413.364868 468.865326,400.815399 477.075226,388.260498 
	C489.110687,369.855438 497.204346,349.595276 503.269745,328.450806 
	C507.795013,312.675323 510.988617,296.719391 512.614624,280.182556 
	C513.000000,357.593842 513.000000,435.187714 513.000000,513.000000 
	C435.312561,513.000000 357.624939,513.000000 279.468658,513.000000 
	C282.587280,512.370300 286.178101,511.759918 289.761230,511.107361 
	C301.403351,508.987061 313.042664,506.851318 324.889709,504.384338 
z"/>
<path fill="#FEFFFF" opacity="1.000000" stroke="none" 
	d="
M425.121216,169.826660 
	C429.265869,183.231873 425.763641,194.137131 416.115662,203.709396 
	C369.659637,249.800705 323.307587,295.996918 276.976929,342.214355 
	C265.309570,353.853210 253.779648,365.632660 242.329529,377.485626 
	C232.537445,387.622162 221.111404,390.570404 207.365753,386.006226 
	C202.113342,381.973328 196.874710,378.377472 192.459091,373.959076 
	C160.898804,342.379211 129.499191,310.638702 98.063385,278.934509 
	C83.141380,263.885101 83.233093,246.657166 98.281204,231.570663 
	C104.634270,225.201385 110.946686,218.790237 117.374626,212.497253 
	C131.132492,199.028183 148.967209,199.083221 162.600143,212.723618 
	C180.029602,230.162613 197.363525,247.697220 214.696579,265.232178 
	C215.969604,266.520020 216.903091,268.143524 217.994415,269.610992 
	C218.717560,269.817535 219.440689,270.024048 220.163818,270.230560 
	C221.208694,268.517792 221.961090,266.511993 223.340912,265.134796 
	C265.788971,222.767212 308.288330,180.451035 350.805298,138.152573 
	C362.292236,126.724663 376.222565,124.231819 388.928711,131.381638 
	C391.365173,132.752670 393.650421,134.545624 395.655884,136.502228 
	C403.167664,143.830887 410.718079,151.137161 417.865784,158.813354 
	C420.749084,161.909912 422.632202,165.937805 425.121216,169.826660 
z"/>
</svg>