<svg version="1.1" id="Layer_1" xmlns="http://www.w3.org/2000/svg" xmlns:xlink="http://www.w3.org/1999/xlink" x="0px" y="0px"
	 width="100%" viewBox="0 0 512 512" enable-background="new 0 0 512 512" xml:space="preserve">
<path fill="#960000" opacity="1.000000" stroke="none" 
	d="
M513.000000,163.000000 
	C513.000000,225.354233 513.000000,287.708466 512.609070,350.688599 
	C510.809875,365.551880 507.708649,379.389618 503.006378,392.922394 
	C495.527618,414.445862 484.270905,433.854095 469.356201,450.893646 
	C456.906921,465.116577 442.720520,477.585968 426.262238,487.272369 
	C407.448425,498.345032 387.570374,506.434357 365.950775,510.024689 
	C360.940674,510.856689 355.982208,511.999969 351.000000,513.000000 
	C344.978851,513.000000 338.957703,513.000000 332.455383,512.676086 
	C331.953949,511.920441 331.933716,511.488739 331.942841,510.583435 
	C331.981903,483.144287 331.994446,456.178650 332.000305,429.213043 
	C332.004852,408.239685 332.042084,387.266113 331.925232,366.293396 
	C331.915588,364.567413 331.331848,362.300934 330.155273,361.229187 
	C326.891388,358.255920 322.818085,356.140625 319.692566,353.051025 
	C299.805054,333.392120 280.091217,313.557556 260.303894,293.797150 
	C258.947388,292.442505 257.458740,291.220123 255.097397,289.095886 
	C253.692505,291.013397 252.777267,292.665497 251.495316,293.952179 
	C231.757965,313.762451 212.006424,333.558929 192.164520,353.264343 
	C189.008850,356.398285 185.397171,359.073090 181.567505,361.959656 
	C178.735870,361.622803 176.124084,361.776825 173.969299,360.858490 
	C167.426437,358.070221 166.609558,352.261414 167.104462,345.750732 
	C167.912643,344.510101 168.548172,343.565613 169.483093,342.811218 
	C175.946899,348.487976 182.179520,348.320435 188.201447,342.313629 
	C209.551666,321.017090 230.874084,299.692566 252.140259,278.312195 
	C253.405106,277.040558 254.084793,275.186890 255.692261,272.514252 
	C258.130524,275.666901 259.106903,277.251892 260.386047,278.535065 
	C281.440430,299.656281 302.523499,320.748871 323.622894,341.825134 
	C329.681244,347.876862 336.869720,348.651947 341.755707,343.879456 
	C347.253357,338.509491 346.863312,331.535889 340.700226,324.985779 
	C337.740631,321.840302 334.782928,318.693085 331.868195,315.043579 
	C331.912048,281.693207 331.912048,248.845886 331.912048,214.933487 
	C329.891541,216.788696 328.672180,217.830109 327.540588,218.959412 
	C316.940582,229.538162 306.385284,240.161942 295.752289,250.707397 
	C291.155518,255.266373 286.407196,259.672577 281.424622,264.015564 
	C278.707458,261.895508 276.293427,259.908081 272.793518,257.026672 
	C275.502991,255.095291 277.022552,254.298996 278.182922,253.142380 
	C299.304047,232.089691 320.432129,211.043259 341.399353,189.837921 
	C343.754944,187.455566 346.066101,184.339142 346.812012,181.187805 
	C348.851807,172.569916 342.271545,166.517075 332.007843,166.439468 
	C332.003845,110.984642 332.001923,55.992321 332.000000,1.000000 
	C338.021149,1.000000 344.042297,1.000000 350.688965,1.390917 
	C365.551880,3.190149 379.389618,6.291370 392.922394,10.993567 
	C414.445892,18.472279 433.854034,29.729124 450.893585,44.643753 
	C465.116577,57.093033 477.585815,71.279541 487.272278,87.737762 
	C498.345093,106.551506 506.434357,126.429626 510.024658,148.049240 
	C510.856659,153.059357 511.999939,158.017792 513.000000,163.000000 
z"/>
<path fill="#B70000" opacity="1.000000" stroke="none" 
	d="
M169.183716,342.621124 
	C168.548172,343.565613 167.912643,344.510101 166.771332,345.688293 
	C164.616669,344.557404 162.844238,343.316406 161.336777,341.810211 
	C109.712944,290.229401 58.120853,238.616821 6.480597,187.052475 
	C4.890410,185.464630 2.837292,184.340378 1.000001,183.000000 
	C1.000000,176.645599 1.000000,170.291214 1.389977,163.309387 
	C3.185330,148.444687 6.289101,134.608276 10.987598,121.074966 
	C18.461306,99.548080 29.722969,80.141212 44.638165,63.103279 
	C57.088459,48.881054 71.274277,36.407379 87.734970,26.721106 
	C106.548683,15.650194 126.424942,7.559930 148.044464,3.973350 
	C153.056152,3.141936 158.016190,1.999384 163.000000,1.000000 
	C219.020889,1.000000 275.041779,1.000000 331.531342,1.000000 
	C332.001923,55.992321 332.003845,110.984642 331.694824,166.595139 
	C328.743927,169.196198 325.827911,170.901047 323.507202,173.205399 
	C302.591583,193.973465 281.782471,214.848740 260.933411,235.683853 
	C259.678314,236.938095 258.348907,238.117966 256.350342,239.992493 
	C254.993698,238.253128 254.007324,236.677567 252.727722,235.394424 
	C231.796860,214.405685 210.871017,193.411392 189.808960,172.554764 
	C187.526306,170.294357 184.628540,168.181885 181.626266,167.229080 
	C176.772491,165.688660 172.476700,167.607040 169.337006,171.674683 
	C165.568359,176.557205 166.226746,181.534515 169.014709,186.884476 
	C164.885681,192.927902 167.149521,199.690308 172.547073,205.062775 
	C189.071930,221.510803 205.518631,238.037338 222.033127,254.495804 
	C225.325714,257.777222 228.783875,260.892487 232.035309,264.396667 
	C212.015732,284.602936 192.114105,304.484558 172.244537,324.398193 
	C165.905106,330.751678 165.247192,334.950806 169.183716,342.621124 
z"/>
<path fill="#CE0909" opacity="1.000000" stroke="none" 
	d="
M1.000001,183.468658 
	C2.837292,184.340378 4.890410,185.464630 6.480597,187.052475 
	C58.120853,238.616821 109.712944,290.229401 161.336777,341.810211 
	C162.844238,343.316406 164.616669,344.557404 166.598679,345.984436 
	C166.609558,352.261414 167.426437,358.070221 173.969299,360.858490 
	C176.124084,361.776825 178.735870,361.622803 181.719177,362.259888 
	C182.726685,363.068726 183.118271,363.612152 183.585739,364.079773 
	C231.671753,412.178162 279.758850,460.275513 327.883423,508.335297 
	C329.009613,509.459991 330.560608,510.159271 331.913452,511.057007 
	C331.933716,511.488739 331.953949,511.920441 331.987122,512.676086 
	C275.979095,513.000000 219.958206,513.000000 163.305389,512.612366 
	C148.805176,510.672668 135.351013,507.653320 122.036469,503.211212 
	C100.172348,495.916748 80.706856,484.560638 63.464169,469.693970 
	C45.624245,454.312408 30.956896,436.094543 20.359056,414.832428 
	C12.539927,399.145111 6.591139,382.868805 3.944523,365.458221 
	C3.206295,360.601837 1.994526,355.817413 0.999998,351.000000 
	C1.000000,295.312439 1.000000,239.624878 1.000001,183.468658 
z"/>
<path fill="#FFFFFF" opacity="1.000000" stroke="none" 
	d="
M162.531342,1.000000 
	C158.016190,1.999384 153.056152,3.141936 148.044464,3.973350 
	C126.424942,7.559930 106.548683,15.650194 87.734970,26.721106 
	C71.274277,36.407379 57.088459,48.881054 44.638165,63.103279 
	C29.722969,80.141212 18.461306,99.548080 10.987598,121.074966 
	C6.289101,134.608276 3.185330,148.444687 1.389977,162.840973 
	C1.000000,109.072990 1.000000,55.145977 1.000000,1.000000 
	C54.687363,1.000000 108.375023,1.000000 162.531342,1.000000 
z"/>
<path fill="#FFFFFF" opacity="1.000000" stroke="none" 
	d="
M513.000000,162.531342 
	C511.999939,158.017792 510.856659,153.059357 510.024658,148.049240 
	C506.434357,126.429626 498.345093,106.551506 487.272278,87.737762 
	C477.585815,71.279541 465.116577,57.093033 450.893585,44.643753 
	C433.854034,29.729124 414.445892,18.472279 392.922394,10.993567 
	C379.389618,6.291370 365.551880,3.190149 351.157257,1.390917 
	C404.927002,1.000000 458.854004,1.000000 513.000000,1.000000 
	C513.000000,54.687363 513.000000,108.375023 513.000000,162.531342 
z"/>
<path fill="#FFFFFF" opacity="1.000000" stroke="none" 
	d="
M0.999998,351.468658 
	C1.994526,355.817413 3.206295,360.601837 3.944523,365.458221 
	C6.591139,382.868805 12.539927,399.145111 20.359056,414.832428 
	C30.956896,436.094543 45.624245,454.312408 63.464169,469.693970 
	C80.706856,484.560638 100.172348,495.916748 122.036469,503.211212 
	C135.351013,507.653320 148.805176,510.672668 162.836731,512.612366 
	C109.072998,513.000000 55.145996,513.000000 1.000000,513.000000 
	C1.000000,459.312653 1.000000,405.624969 0.999998,351.468658 
z"/>
<path fill="#FFFFFF" opacity="1.000000" stroke="none" 
	d="
M351.468658,513.000000 
	C355.982208,511.999969 360.940674,510.856689 365.950775,510.024689 
	C387.570374,506.434357 407.448425,498.345032 426.262238,487.272369 
	C442.720520,477.585968 456.906921,465.116577 469.356201,450.893646 
	C484.270905,433.854095 495.527618,414.445862 503.006378,392.922394 
	C507.708649,379.389618 510.809875,365.551880 512.609070,351.157257 
	C513.000000,404.927002 513.000000,458.854004 513.000000,513.000000 
	C459.312653,513.000000 405.624969,513.000000 351.468658,513.000000 
z"/>
<path fill="#B70000" opacity="1.000000" stroke="none" 
	d="
M331.942841,510.583435 
	C330.560608,510.159271 329.009613,509.459991 327.883423,508.335297 
	C279.758850,460.275513 231.671753,412.178162 183.585739,364.079773 
	C183.118271,363.612152 182.726685,363.068726 182.147980,362.260437 
	C185.397171,359.073090 189.008850,356.398285 192.164520,353.264343 
	C212.006424,333.558929 231.757965,313.762451 251.495316,293.952179 
	C252.777267,292.665497 253.692505,291.013397 255.097397,289.095886 
	C257.458740,291.220123 258.947388,292.442505 260.303894,293.797150 
	C280.091217,313.557556 299.805054,333.392120 319.692566,353.051025 
	C322.818085,356.140625 326.891388,358.255920 330.155273,361.229187 
	C331.331848,362.300934 331.915588,364.567413 331.925232,366.293396 
	C332.042084,387.266113 332.004852,408.239685 332.000305,429.213043 
	C331.994446,456.178650 331.981903,483.144287 331.942841,510.583435 
z"/>
<path fill="#FEFCFC" opacity="1.000000" stroke="none" 
	d="
M169.190063,186.509918 
	C166.226746,181.534515 165.568359,176.557205 169.337006,171.674683 
	C172.476700,167.607040 176.772491,165.688660 181.626266,167.229080 
	C184.628540,168.181885 187.526306,170.294357 189.808960,172.554764 
	C210.871017,193.411392 231.796860,214.405685 252.727722,235.394424 
	C254.007324,236.677567 254.993698,238.253128 256.350342,239.992493 
	C258.348907,238.117966 259.678314,236.938095 260.933411,235.683853 
	C281.782471,214.848740 302.591583,193.973465 323.507202,173.205399 
	C325.827911,170.901047 328.743927,169.196198 331.696899,167.057648 
	C342.271545,166.517075 348.851807,172.569916 346.812012,181.187805 
	C346.066101,184.339142 343.754944,187.455566 341.399353,189.837921 
	C320.432129,211.043259 299.304047,232.089691 278.182922,253.142380 
	C277.022552,254.298996 275.502991,255.095291 272.793518,257.026672 
	C276.293427,259.908081 278.707458,261.895508 281.556030,264.327942 
	C298.601837,281.697510 315.213074,298.622070 331.824341,315.546661 
	C334.782928,318.693085 337.740631,321.840302 340.700226,324.985779 
	C346.863312,331.535889 347.253357,338.509491 341.755707,343.879456 
	C336.869720,348.651947 329.681244,347.876862 323.622894,341.825134 
	C302.523499,320.748871 281.440430,299.656281 260.386047,278.535065 
	C259.106903,277.251892 258.130524,275.666901 255.692261,272.514252 
	C254.084793,275.186890 253.405106,277.040558 252.140259,278.312195 
	C230.874084,299.692566 209.551666,321.017090 188.201447,342.313629 
	C182.179520,348.320435 175.946899,348.487976 169.483093,342.811218 
	C165.247192,334.950806 165.905106,330.751678 172.244537,324.398193 
	C192.114105,304.484558 212.015732,284.602936 232.345276,264.272827 
	C235.163986,261.817322 237.542343,259.797913 240.362091,257.403748 
	C216.029968,233.166733 192.610016,209.838318 169.190063,186.509918 
z"/>
<path fill="#B70101" opacity="1.000000" stroke="none" 
	d="
M331.868195,315.043579 
	C315.213074,298.622070 298.601837,281.697510 281.859131,264.460541 
	C286.407196,259.672577 291.155518,255.266373 295.752289,250.707397 
	C306.385284,240.161942 316.940582,229.538162 327.540588,218.959412 
	C328.672180,217.830109 329.891541,216.788696 331.912048,214.933487 
	C331.912048,248.845886 331.912048,281.693207 331.868195,315.043579 
z"/>
<path fill="#970101" opacity="1.000000" stroke="none" 
	d="
M169.014709,186.884491 
	C192.610016,209.838318 216.029968,233.166733 240.362091,257.403748 
	C237.542343,259.797913 235.163986,261.817322 232.475647,263.960571 
	C228.783875,260.892487 225.325714,257.777222 222.033127,254.495804 
	C205.518631,238.037338 189.071930,221.510803 172.547073,205.062775 
	C167.149521,199.690308 164.885681,192.927902 169.014709,186.884491 
z"/>
</svg>